<svg width="251" height="45" viewBox="0 0 251 45" fill="none" xmlns="http://www.w3.org/2000/svg">
<path d="M13.125 12.0918H11.25V6.46684C11.25 5.96956 11.0525 5.49264 10.7008 5.14101C10.3492 4.78938 9.87228 4.59184 9.375 4.59184C8.87772 4.59184 8.40081 4.78938 8.04917 5.14101C7.69754 5.49264 7.5 5.96956 7.5 6.46684V12.0918H5.625C5.12772 12.0918 4.65081 12.2894 4.29917 12.641C3.94754 12.9926 3.75 13.4696 3.75 13.9668C3.75 14.4641 3.94754 14.941 4.29917 15.2927C4.65081 15.6443 5.12772 15.8418 5.625 15.8418H13.125C13.6223 15.8418 14.0992 15.6443 14.4508 15.2927C14.8025 14.941 15 14.4641 15 13.9668C15 13.4696 14.8025 12.9926 14.4508 12.641C14.0992 12.2894 13.6223 12.0918 13.125 12.0918ZM9.375 19.5918C8.87772 19.5918 8.40081 19.7894 8.04917 20.141C7.69754 20.4926 7.5 20.9696 7.5 21.4668V40.2168C7.5 40.7141 7.69754 41.191 8.04917 41.5427C8.40081 41.8943 8.87772 42.0918 9.375 42.0918C9.87228 42.0918 10.3492 41.8943 10.7008 41.5427C11.0525 41.191 11.25 40.7141 11.25 40.2168V21.4668C11.25 20.9696 11.0525 20.4926 10.7008 20.141C10.3492 19.7894 9.87228 19.5918 9.375 19.5918ZM22.5 34.5918C22.0027 34.5918 21.5258 34.7894 21.1742 35.141C20.8225 35.4926 20.625 35.9696 20.625 36.4668V40.2168C20.625 40.7141 20.8225 41.191 21.1742 41.5427C21.5258 41.8943 22.0027 42.0918 22.5 42.0918C22.9973 42.0918 23.4742 41.8943 23.8258 41.5427C24.1775 41.191 24.375 40.7141 24.375 40.2168V36.4668C24.375 35.9696 24.1775 35.4926 23.8258 35.141C23.4742 34.7894 22.9973 34.5918 22.5 34.5918ZM39.375 19.5918H37.5V6.46684C37.5 5.96956 37.3025 5.49264 36.9508 5.14101C36.5992 4.78938 36.1223 4.59184 35.625 4.59184C35.1277 4.59184 34.6508 4.78938 34.2992 5.14101C33.9475 5.49264 33.75 5.96956 33.75 6.46684V19.5918H31.875C31.3777 19.5918 30.9008 19.7894 30.5492 20.141C30.1975 20.4926 30 20.9696 30 21.4668C30 21.9641 30.1975 22.441 30.5492 22.7927C30.9008 23.1443 31.3777 23.3418 31.875 23.3418H39.375C39.8723 23.3418 40.3492 23.1443 40.7008 22.7927C41.0525 22.441 41.25 21.9641 41.25 21.4668C41.25 20.9696 41.0525 20.4926 40.7008 20.141C40.3492 19.7894 39.8723 19.5918 39.375 19.5918ZM35.625 27.0918C35.1277 27.0918 34.6508 27.2894 34.2992 27.641C33.9475 27.9926 33.75 28.4696 33.75 28.9668V40.2168C33.75 40.7141 33.9475 41.191 34.2992 41.5427C34.6508 41.8943 35.1277 42.0918 35.625 42.0918C36.1223 42.0918 36.5992 41.8943 36.9508 41.5427C37.3025 41.191 37.5 40.7141 37.5 40.2168V28.9668C37.5 28.4696 37.3025 27.9926 36.9508 27.641C36.5992 27.2894 36.1223 27.0918 35.625 27.0918ZM26.25 27.0918H24.375V6.46684C24.375 5.96956 24.1775 5.49264 23.8258 5.14101C23.4742 4.78938 22.9973 4.59184 22.5 4.59184C22.0027 4.59184 21.5258 4.78938 21.1742 5.14101C20.8225 5.49264 20.625 5.96956 20.625 6.46684V27.0918H18.75C18.2527 27.0918 17.7758 27.2894 17.4242 27.641C17.0725 27.9926 16.875 28.4696 16.875 28.9668C16.875 29.4641 17.0725 29.941 17.4242 30.2927C17.7758 30.6443 18.2527 30.8418 18.75 30.8418H26.25C26.7473 30.8418 27.2242 30.6443 27.5758 30.2927C27.9275 29.941 28.125 29.4641 28.125 28.9668C28.125 28.4696 27.9275 27.9926 27.5758 27.641C27.2242 27.2894 26.7473 27.0918 26.25 27.0918Z" fill="black"/>
<path d="M63.4434 24.294H55.0305V29.9902H64.9039V33.5102H50.6487V12.2443H64.8747V15.7935H55.0305V20.8616H63.4434V24.294Z" fill="#17D06E"/>
<path d="M71.0822 17.7068L71.2136 19.5325C72.3431 18.1206 73.8572 17.4147 75.756 17.4147C77.4308 17.4147 78.6771 17.9064 79.4951 18.8899C80.313 19.8733 80.7317 21.3436 80.7511 23.3008V33.5102H76.5301V23.403C76.5301 22.5072 76.3354 21.8597 75.9459 21.4605C75.5564 21.0515 74.9089 20.847 74.0033 20.847C72.8154 20.847 71.9244 21.3534 71.3305 22.366V33.5102H67.1094V17.7068H71.0822ZM83.351 25.4917C83.351 23.0671 83.9255 21.1148 85.0744 19.6348C86.2332 18.1547 87.7911 17.4147 89.7483 17.4147C91.4815 17.4147 92.8301 18.0087 93.7941 19.1966L93.9693 17.7068H97.796V32.9844C97.796 34.3671 97.4796 35.5696 96.8467 36.592C96.2235 37.6144 95.3423 38.3934 94.203 38.9289C93.0638 39.4645 91.7298 39.7322 90.2011 39.7322C89.0423 39.7322 87.9128 39.4986 86.8125 39.0312C85.7122 38.5735 84.8797 37.9796 84.3149 37.2493L86.1845 34.6787C87.2361 35.8569 88.5117 36.446 90.0112 36.446C91.131 36.446 92.0024 36.1441 92.6256 35.5404C93.2488 34.9464 93.5604 34.0993 93.5604 32.999V32.1519C92.5867 33.2522 91.3062 33.8023 89.7191 33.8023C87.8203 33.8023 86.2819 33.0623 85.1037 31.5822C83.9352 30.0925 83.351 28.1207 83.351 25.6669V25.4917ZM87.572 25.7984C87.572 27.2297 87.8593 28.3544 88.4338 29.1723C89.0083 29.9805 89.797 30.3846 90.7999 30.3846C92.0852 30.3846 93.0054 29.9026 93.5604 28.9386V22.293C92.9956 21.329 92.0852 20.847 90.8291 20.847C89.8164 20.847 89.018 21.2609 88.4338 22.0885C87.8593 22.9162 87.572 24.1528 87.572 25.7984ZM110.211 33.5102C110.016 33.1305 109.875 32.6582 109.787 32.0934C108.765 33.2327 107.436 33.8023 105.8 33.8023C104.252 33.8023 102.966 33.3544 101.944 32.4586C100.931 31.5628 100.425 30.4333 100.425 29.0701C100.425 27.3953 101.043 26.11 102.28 25.2142C103.526 24.3183 105.323 23.8656 107.67 23.8558H109.612V22.9503C109.612 22.22 109.422 21.6357 109.042 21.1976C108.672 20.7594 108.083 20.5403 107.275 20.5403C106.564 20.5403 106.004 20.7107 105.595 21.0515C105.196 21.3923 104.997 21.8597 104.997 22.4537H100.776C100.776 21.5384 101.058 20.6912 101.623 19.9123C102.187 19.1333 102.986 18.5247 104.018 18.0866C105.05 17.6386 106.209 17.4147 107.494 17.4147C109.442 17.4147 110.985 17.9064 112.124 18.8899C113.273 19.8636 113.848 21.2365 113.848 23.0087V29.8588C113.857 31.3583 114.067 32.4927 114.476 33.2619V33.5102H110.211ZM106.72 30.5745C107.343 30.5745 107.918 30.4381 108.444 30.1655C108.969 29.8831 109.359 29.5082 109.612 29.0409V26.3242H108.035C105.922 26.3242 104.797 27.0545 104.661 28.515L104.646 28.7633C104.646 29.2891 104.831 29.7225 105.201 30.0633C105.571 30.4041 106.077 30.5745 106.72 30.5745ZM116.477 25.4917C116.477 23.0671 117.051 21.1148 118.2 19.6348C119.359 18.1547 120.917 17.4147 122.874 17.4147C124.607 17.4147 125.956 18.0087 126.92 19.1966L127.095 17.7068H130.922V32.9844C130.922 34.3671 130.605 35.5696 129.972 36.592C129.349 37.6144 128.468 38.3934 127.329 38.9289C126.19 39.4645 124.856 39.7322 123.327 39.7322C122.168 39.7322 121.039 39.4986 119.938 39.0312C118.838 38.5735 118.005 37.9796 117.441 37.2493L119.31 34.6787C120.362 35.8569 121.637 36.446 123.137 36.446C124.257 36.446 125.128 36.1441 125.751 35.5404C126.375 34.9464 126.686 34.0993 126.686 32.999V32.1519C125.712 33.2522 124.432 33.8023 122.845 33.8023C120.946 33.8023 119.408 33.0623 118.229 31.5822C117.061 30.0925 116.477 28.1207 116.477 25.6669V25.4917ZM120.698 25.7984C120.698 27.2297 120.985 28.3544 121.56 29.1723C122.134 29.9805 122.923 30.3846 123.926 30.3846C125.211 30.3846 126.131 29.9026 126.686 28.9386V22.293C126.121 21.329 125.211 20.847 123.955 20.847C122.942 20.847 122.144 21.2609 121.56 22.0885C120.985 22.9162 120.698 24.1528 120.698 25.7984ZM138.634 33.5102H134.398V17.7068H138.634V33.5102ZM134.15 13.6172C134.15 12.9843 134.359 12.4634 134.778 12.0544C135.206 11.6454 135.786 11.4409 136.516 11.4409C137.236 11.4409 137.811 11.6454 138.239 12.0544C138.668 12.4634 138.882 12.9843 138.882 13.6172C138.882 14.2599 138.663 14.7857 138.225 15.1946C137.796 15.6036 137.227 15.8081 136.516 15.8081C135.805 15.8081 135.231 15.6036 134.792 15.1946C134.364 14.7857 134.15 14.2599 134.15 13.6172ZM146.01 17.7068L146.141 19.5325C147.271 18.1206 148.785 17.4147 150.683 17.4147C152.358 17.4147 153.605 17.9064 154.422 18.8899C155.24 19.8733 155.659 21.3436 155.679 23.3008V33.5102H151.457V23.403C151.457 22.5072 151.263 21.8597 150.873 21.4605C150.484 21.0515 149.836 20.847 148.931 20.847C147.743 20.847 146.852 21.3534 146.258 22.366V33.5102H142.037V17.7068H146.01ZM158.278 25.4917C158.278 23.0671 158.853 21.1148 160.002 19.6348C161.161 18.1547 162.718 17.4147 164.676 17.4147C166.409 17.4147 167.757 18.0087 168.721 19.1966L168.897 17.7068H172.723V32.9844C172.723 34.3671 172.407 35.5696 171.774 36.592C171.151 37.6144 170.27 38.3934 169.13 38.9289C167.991 39.4645 166.657 39.7322 165.128 39.7322C163.97 39.7322 162.84 39.4986 161.74 39.0312C160.64 38.5735 159.807 37.9796 159.242 37.2493L161.112 34.6787C162.163 35.8569 163.439 36.446 164.939 36.446C166.058 36.446 166.93 36.1441 167.553 35.5404C168.176 34.9464 168.488 34.0993 168.488 32.999V32.1519C167.514 33.2522 166.234 33.8023 164.646 33.8023C162.748 33.8023 161.209 33.0623 160.031 31.5822C158.863 30.0925 158.278 28.1207 158.278 25.6669V25.4917ZM162.499 25.7984C162.499 27.2297 162.787 28.3544 163.361 29.1723C163.936 29.9805 164.724 30.3846 165.727 30.3846C167.013 30.3846 167.933 29.9026 168.488 28.9386V22.293C167.923 21.329 167.013 20.847 165.756 20.847C164.744 20.847 163.945 21.2609 163.361 22.0885C162.787 22.9162 162.499 24.1528 162.499 25.7984ZM188.089 29.9902H197.392V33.5102H183.707V12.2443H188.089V29.9902ZM198.985 25.4624C198.985 23.8948 199.286 22.4975 199.89 21.2706C200.494 20.0437 201.36 19.0944 202.49 18.4225C203.629 17.7506 204.949 17.4147 206.448 17.4147C208.58 17.4147 210.319 18.0671 211.662 19.3719C213.016 20.6766 213.77 22.4488 213.926 24.6883L213.955 25.7692C213.955 28.1937 213.279 30.1411 211.925 31.6115C210.572 33.072 208.756 33.8023 206.477 33.8023C204.199 33.8023 202.378 33.072 201.015 31.6115C199.661 30.1509 198.985 28.1645 198.985 25.6523V25.4624ZM203.206 25.7692C203.206 27.2687 203.488 28.4177 204.053 29.2161C204.617 30.0048 205.426 30.3992 206.477 30.3992C207.5 30.3992 208.298 30.0097 208.873 29.2307C209.447 28.442 209.734 27.1859 209.734 25.4624C209.734 23.9921 209.447 22.8529 208.873 22.0447C208.298 21.2365 207.49 20.8324 206.448 20.8324C205.416 20.8324 204.617 21.2365 204.053 22.0447C203.488 22.8432 203.206 24.0846 203.206 25.7692ZM215.942 25.4917C215.942 23.0671 216.516 21.1148 217.665 19.6348C218.824 18.1547 220.382 17.4147 222.339 17.4147C224.072 17.4147 225.421 18.0087 226.385 19.1966L226.56 17.7068H230.387V32.9844C230.387 34.3671 230.07 35.5696 229.437 36.592C228.814 37.6144 227.933 38.3934 226.794 38.9289C225.655 39.4645 224.321 39.7322 222.792 39.7322C221.633 39.7322 220.504 39.4986 219.403 39.0312C218.303 38.5735 217.471 37.9796 216.906 37.2493L218.775 34.6787C219.827 35.8569 221.102 36.446 222.602 36.446C223.722 36.446 224.593 36.1441 225.216 35.5404C225.84 34.9464 226.151 34.0993 226.151 32.999V32.1519C225.177 33.2522 223.897 33.8023 222.31 33.8023C220.411 33.8023 218.873 33.0623 217.694 31.5822C216.526 30.0925 215.942 28.1207 215.942 25.6669V25.4917ZM220.163 25.7984C220.163 27.2297 220.45 28.3544 221.025 29.1723C221.599 29.9805 222.388 30.3846 223.391 30.3846C224.676 30.3846 225.596 29.9026 226.151 28.9386V22.293C225.586 21.329 224.676 20.847 223.42 20.847C222.407 20.847 221.609 21.2609 221.025 22.0885C220.45 22.9162 220.163 24.1528 220.163 25.7984ZM232.987 25.4624C232.987 23.8948 233.289 22.4975 233.892 21.2706C234.496 20.0437 235.363 19.0944 236.492 18.4225C237.631 17.7506 238.951 17.4147 240.45 17.4147C242.583 17.4147 244.321 18.0671 245.664 19.3719C247.018 20.6766 247.773 22.4488 247.928 24.6883L247.958 25.7692C247.958 28.1937 247.281 30.1411 245.927 31.6115C244.574 33.072 242.758 33.8023 240.479 33.8023C238.201 33.8023 236.38 33.072 235.017 31.6115C233.663 30.1509 232.987 28.1645 232.987 25.6523V25.4624ZM237.208 25.7692C237.208 27.2687 237.49 28.4177 238.055 29.2161C238.62 30.0048 239.428 30.3992 240.479 30.3992C241.502 30.3992 242.3 30.0097 242.875 29.2307C243.449 28.442 243.736 27.1859 243.736 25.4624C243.736 23.9921 243.449 22.8529 242.875 22.0447C242.3 21.2365 241.492 20.8324 240.45 20.8324C239.418 20.8324 238.62 21.2365 238.055 22.0447C237.49 22.8432 237.208 24.0846 237.208 25.7692Z" fill="black"/>
</svg>
